<?xml version="1.0" encoding="UTF-8" standalone="no"?>
<!-- Generator: Adobe Illustrator 24.0.1, SVG Export Plug-In . SVG Version: 6.00 Build 0)  -->

<svg
   xmlns:dc="http://purl.org/dc/elements/1.1/"
   xmlns:cc="http://creativecommons.org/ns#"
   xmlns:rdf="http://www.w3.org/1999/02/22-rdf-syntax-ns#"
   xmlns:svg="http://www.w3.org/2000/svg"
   xmlns="http://www.w3.org/2000/svg"
   xmlns:sodipodi="http://sodipodi.sourceforge.net/DTD/sodipodi-0.dtd"
   xmlns:inkscape="http://www.inkscape.org/namespaces/inkscape"
   version="1.1"
   id="Layer_1"
   x="0px"
   y="0px"
   viewBox="0 0 3150.7416 716.55016"
   xml:space="preserve"
   sodipodi:docname="UpSmarting_logo_text_header.svg"
   width="3150.7415"
   height="716.55017"
   inkscape:version="0.92.3 (2405546, 2018-03-11)"><metadata
   id="metadata83"><rdf:RDF><cc:Work
       rdf:about=""><dc:format>image/svg+xml</dc:format><dc:type
         rdf:resource="http://purl.org/dc/dcmitype/StillImage" /><dc:title /></cc:Work></rdf:RDF></metadata><defs
   id="defs81" /><sodipodi:namedview
   pagecolor="#ffffff"
   bordercolor="#666666"
   borderopacity="1"
   objecttolerance="10"
   gridtolerance="10"
   guidetolerance="10"
   inkscape:pageopacity="0"
   inkscape:pageshadow="2"
   inkscape:window-width="2560"
   inkscape:window-height="1311"
   id="namedview79"
   showgrid="false"
   showguides="true"
   inkscape:guide-bbox="true"
   fit-margin-top="0"
   fit-margin-left="0"
   fit-margin-right="0"
   fit-margin-bottom="0"
   inkscape:zoom="0.35378105"
   inkscape:cx="760.56512"
   inkscape:cy="-122.3959"
   inkscape:window-x="1920"
   inkscape:window-y="55"
   inkscape:window-maximized="1"
   inkscape:current-layer="g76"><sodipodi:guide
     position="1162.4615,125.924"
     orientation="0,1"
     id="guide890"
     inkscape:locked="false" /><sodipodi:guide
     position="1382.3199,477.69747"
     orientation="0,1"
     id="guide892"
     inkscape:locked="false" /><sodipodi:guide
     position="2002.9203,385.75668"
     orientation="0,1"
     id="guide894"
     inkscape:locked="false" /></sodipodi:namedview>
<style
   type="text/css"
   id="style2">
	.st0{fill:none;}
	.st1{fill:#000000;}
	.st2{fill:#000000;}
	.st3{fill:#000000;}
	.st4{fill:#000000;}
	.st5{fill:#000000;}
	.st6{fill:#000000;}
	.st7{fill:#000000;}
	.st8{fill:#FC4744;}
	.st9{fill:#FC4744;}
	.st10{fill:#000000;}
</style>
<g
   id="g76"
   transform="translate(-64.748299,-3049.0301)">
	<path
   class="st0"
   d="m 684.46778,3765.5803 c -206.57189,0 -413.14569,0 -619.719481,0 0,-238.8508 0,-477.6996 0,-716.5502 206.571901,0 413.145691,0 619.717581,0 0.002,238.8506 0.002,477.6994 0.002,716.5502 z M 155.82929,3290.9209 c -0.87918,0.012 -1.5134,0.027 -2.14762,0.027 -5.74217,0 -11.48244,0 -17.22461,0 -14.12756,0 -28.25702,0.043 -42.384579,-0.032 -3.431249,-0.02 -7.958146,2.2139 -9.319633,7.0636 -0.303818,1.0843 -0.292425,2.1667 -0.292425,3.2605 -0.002,109.2911 -0.002,218.5822 -0.002,327.8752 0,0.3873 0,0.7747 0,1.1622 0.0095,4.6748 3.985719,9.0062 8.932264,9.2207 0.643716,0.029 1.28933,0.01 1.934944,0.01 186.375569,0 372.751119,0 559.126689,0 0.58104,0 1.16209,0.018 1.74125,-0.01 2.73247,-0.1024 4.95795,-1.2665 6.74477,-3.2944 1.75646,-1.9919 2.30903,-4.3485 2.30712,-6.9765 -0.0246,-83.1626 -0.0208,-166.3254 -0.0228,-249.4901 0,-0.7727 -0.0418,-1.5456 -0.0702,-2.3185 -0.20888,-5.7155 -5.8618,-10.1722 -11.86221,-8.7841 -1.74697,0.4044 -3.20529,1.2798 -4.58387,2.385 -19.83934,15.884 -39.68628,31.7585 -59.53133,47.6329 -6.44664,5.1574 -12.8914,10.3185 -19.34754,15.4664 -0.36649,0.2924 -0.6741,0.7937 -1.37478,0.6342 0,-0.733 0,-1.4318 0,-2.1306 0,-17.5493 0,-35.0967 -0.004,-52.646 0,-0.8374 -0.0398,-1.6747 -0.0684,-2.5122 -0.18799,-5.8219 -5.98522,-10.288 -12.01032,-8.7936 -1.6729,0.4158 -3.07806,1.2607 -4.40347,2.3223 -18.5804,14.8757 -37.1684,29.7419 -55.7545,44.6101 -7.7056,6.1656 -15.40929,12.3331 -23.12248,18.4911 -0.37218,0.2981 -0.69499,0.7519 -1.41085,0.7272 0,-0.769 0,-1.4602 0,-2.1532 0,-43.6132 0,-87.2283 0,-130.8413 0,-0.5166 -0.0133,-1.0332 0.002,-1.5476 0.0968,-3.4048 -2.25395,-7.4607 -6.55299,-8.8944 -1.12602,-0.3759 -2.26535,-0.4386 -3.43315,-0.4386 -44.96513,0 -89.93027,0 -134.89541,0 -0.19368,0 -0.38737,0 -0.58106,0 -4.21547,0.035 -7.71508,2.5881 -9.08607,6.5644 -0.41015,1.1906 -0.43483,2.3983 -0.43483,3.6269 0.002,47.2266 0.002,94.4533 0.002,141.68 0,0.5811 0.0133,1.1622 -0.006,1.7413 -0.0133,0.3665 -0.0759,0.731 -0.12912,1.1906 -0.87158,0.016 -1.63492,0.037 -2.39827,0.037 -24.06243,0 -48.12675,0 -72.18917,0 -0.45193,0 -0.90386,0.02 -1.35389,-0.01 -0.36268,-0.022 -0.71968,-0.097 -1.19438,-0.1654 0,-0.879 0,-1.6443 0,-2.4114 0,-47.0977 0,-94.1951 0,-141.2927 0,-0.5166 -0.0171,-1.033 0.002,-1.5476 0.13103,-3.5945 -2.40205,-7.6581 -6.64982,-9.0196 -1.13743,-0.3647 -2.27484,-0.4045 -3.43694,-0.4045 -17.28918,0 -34.57834,0 -51.86752,0 -0.69499,0 -1.39188,-0.032 -2.13623,-0.051 -0.0684,-0.3551 -0.1557,-0.5962 -0.1557,-0.8393 -0.008,-5.3453 -0.006,-10.6907 -0.006,-16.1271 7.12075,-2.7628 12.62556,-7.3259 16.12897,-14.0857 3.54519,-6.8398 4.15471,-14.008 2.05647,-21.4041 -3.24326,-11.4311 -14.17502,-21.2577 -28.6235,-20.8495 -14.40479,0.4063 -24.98907,10.7628 -27.6057,22.9288 -2.73437,12.7186 3.27174,27.2696 18.68483,33.4485 0.0114,5.52 0.009,11.1141 0.009,16.9569 z m 29.03366,-208.8696 c 2.1666,0.321 4.29143,0.061 6.38207,0.2355 2.05268,0.1709 4.11675,0.2298 6.16943,0.4083 2.11723,0.1842 4.23257,0.4215 6.3403,0.6911 2.10774,0.2697 4.21548,0.5678 6.30994,0.9285 2.09444,0.3609 4.1794,0.7843 6.25486,1.242 2.0109,0.4442 4.0161,0.9304 6.00422,1.4697 2.04888,0.5544 4.08635,1.1659 6.11054,1.8057 2.02419,0.6399 4.04269,1.3083 6.0384,2.0337 1.93494,0.7027 3.85279,1.4641 5.75356,2.2578 1.95963,0.8165 3.90787,1.6711 5.83141,2.5674 1.92545,0.898 3.83191,1.838 5.7156,2.8216 1.88366,0.9837 3.74266,2.0166 5.58455,3.078 1.78684,1.0293 3.55658,2.0888 5.29404,3.1958 1.79253,1.1432 3.56037,2.3299 5.30164,3.551 1.74125,1.2209 3.45972,2.478 5.14592,3.7748 1.68619,1.297 3.34201,2.6338 4.97313,4.0011 1.58176,1.3253 3.13883,2.6811 4.65791,4.0749 1.56847,1.4373 3.10086,2.9148 4.60665,4.4186 1.50391,1.5039 2.97932,3.0401 4.42056,4.6048 1.39756,1.5172 2.76095,3.0666 4.09016,4.6446 1.37098,1.6273 2.70968,3.2832 4.0066,4.9693 1.29693,1.6862 2.55018,3.4065 3.77495,5.1479 1.22287,1.7393 2.41536,3.5034 3.56417,5.2921 1.11464,1.7337 2.19129,3.4958 3.22808,5.2769 1.06906,1.8381 2.10204,3.6971 3.08755,5.5808 0.98551,1.8836 1.92544,3.792 2.82742,5.7175 0.87347,1.8665 1.70707,3.754 2.50079,5.6567 0.81841,1.9615 1.60265,3.9382 2.33751,5.9321 0.73295,1.9938 1.42415,4.0046 2.06217,6.0289 0.63991,2.026 1.22287,4.0731 1.77164,6.1257 0.53358,1.99 1.02539,3.9933 1.47542,6.0043 0.46332,2.0754 0.88677,4.1603 1.26274,6.2528 0.37598,2.0926 0.70258,4.1946 0.98741,6.3005 0.28484,2.1059 0.52979,4.2193 0.72157,6.3366 0.1861,2.0526 0.31711,4.1129 0.40256,6.1712 0.0873,2.1116 0.0892,4.2269 0.12913,6.4335 0.488,0.059 0.85448,0.1385 1.22287,0.1385 5.67571,0.01 11.35141,0.01 17.02712,0 0.35888,0 0.71588,-0.1196 1.02539,-0.1766 0,-2.6299 0.0912,-5.144 -0.017,-7.6486 -0.29242,-6.7656 -1.06717,-13.4781 -2.19889,-20.1583 -1.53238,-9.0443 -3.82052,-17.8874 -6.88339,-26.5233 -9.06898,-25.5759 -23.56682,-47.6236 -43.43845,-66.0806 -18.77218,-17.4335 -40.46672,-29.8331 -65.03235,-37.1683 -7.47963,-2.2332 -15.08079,-3.9099 -22.80917,-5.0264 -5.17061,-0.7462 -10.35262,-1.3292 -15.57639,-1.5114 -1.09375,-0.037 -2.18369,-0.1539 -3.27745,-0.2013 -0.83739,-0.035 -1.6767,-0.037 -2.5141,-0.024 -0.8203,0.016 -1.6577,-0.1024 -2.51599,0.133 -0.0531,0.3228 -0.12912,0.5658 -0.12912,0.8107 -0.01,6.0593 -0.008,12.1186 -0.008,18.4078 z m 415.76991,655.4942 c -0.1595,2.4267 0.31141,5.4896 1.26084,8.0569 2.14384,5.7991 6.12574,9.9195 11.64195,12.5932 3.27554,1.5875 6.75047,2.4989 10.3697,2.8996 5.93967,0.657 11.7293,0.066 17.27209,-2.1971 7.37899,-3.0153 12.28756,-8.336 14.45986,-16.0586 0.73675,-2.6205 0.98741,-5.3111 0.98551,-8.036 -0.0133,-18.5766 -0.006,-37.1551 -0.006,-55.7318 0,-0.5734 0,-1.1487 0,-1.707 -0.30192,-0.097 -0.48231,-0.2051 -0.66271,-0.2051 -4.57816,-0.01 -9.15822,-0.01 -13.73639,0 -0.1804,0 -0.36268,0.1063 -0.61333,0.1842 -0.0285,0.4349 -0.0665,0.8735 -0.0835,1.314 -0.0133,0.3874 -0.004,0.7748 -0.004,1.1602 0,0.452 0,0.9039 0,1.354 0,0.3873 0.0228,0.7766 -0.006,1.1602 -0.0323,0.4101 0.16709,0.8753 -0.26395,1.3158 -0.43484,-0.5468 -0.8241,-1.0406 -1.21907,-1.5304 -2.5217,-3.1294 -5.73078,-5.1934 -9.67282,-5.9625 -7.95056,-1.5514 -14.99155,0.357 -20.86853,5.9719 -5.15733,4.9276 -7.68092,11.1863 -8.63605,18.1513 -0.60194,4.3884 -0.36269,8.7518 0.39876,13.0965 0.70639,4.037 1.95394,7.8765 4.23638,11.3248 2.96602,4.4813 7.04288,7.512 12.18502,8.9911 4.40157,1.2665 8.91707,1.4413 13.40219,0.4976 4.09585,-0.8622 7.65243,-2.6945 9.93106,-6.4353 0.0702,-0.1158 0.27345,-0.15 0.50511,-0.2697 0,3.0819 0.0437,6.046 -0.0114,9.0102 -0.0702,3.8034 -1.72038,6.7637 -4.80603,9.0195 -4.71868,3.4483 -12.13375,3.3307 -15.91249,1.6388 -3.60026,-1.6102 -5.71179,-4.2876 -6.08967,-8.2639 -0.0474,-0.4899 -0.18229,-0.9722 -0.26963,-1.4203 -2.74196,-0.1728 -12.14895,-0.1234 -13.78767,0.078 z m -265.1519,-3.2889 c 0.0228,-0.9324 0.0551,-1.6311 0.0551,-2.3318 0.004,-10.1913 -0.004,-20.3825 0.01,-30.5736 0.002,-1.223 0.0208,-2.4571 0.16899,-3.6687 0.3437,-2.8369 1.49821,-5.3054 3.5243,-7.3561 3.24136,-3.2775 9.79435,-3.5357 12.86671,1.5229 0.98741,1.6273 1.61974,3.3705 1.80203,5.256 0.12343,1.2818 0.18229,2.5748 0.18229,3.8623 0.0133,10.3849 0.004,20.7698 0.019,31.1547 0.002,0.6798 -0.19369,1.4052 0.19368,2.0223 0.18799,0.045 0.31332,0.1006 0.43674,0.1006 4.45094,0.01 8.89998,0.01 13.35093,0 0.23356,0 0.46522,-0.1101 0.78992,-0.1918 0,-0.6494 0,-1.2209 0,-1.7925 0,-12.1907 0.006,-24.3814 -0.01,-36.5722 -0.002,-1.2209 -0.0418,-2.4589 -0.22976,-3.6628 -1.12223,-7.1949 -4.93706,-12.3332 -11.76347,-15.0732 -3.62874,-1.4565 -7.43217,-1.5913 -11.2375,-1.0483 -4.80982,0.6856 -8.54299,3.1009 -10.99442,7.3695 -0.21268,0.3704 -0.45194,0.7235 -0.76145,1.2191 -0.41016,-0.5183 -0.70829,-0.9247 -1.03679,-1.3045 -1.09753,-1.2646 -2.13432,-2.5919 -3.32871,-3.7597 -1.8362,-1.7964 -4.05217,-2.9396 -6.61374,-3.3724 -3.60215,-0.6096 -7.1967,-0.5944 -10.75708,0.2127 -3.87747,0.8772 -6.95555,2.9755 -9.15633,6.3137 -0.35508,0.5374 -0.68359,1.0938 -1.03299,1.6349 -0.12341,0.1899 -0.27532,0.3627 -0.59244,0.7747 -0.26583,-2.7685 0.0874,-5.2523 -0.23355,-7.8347 -1.62733,-0.01 -3.16542,-0.023 -4.7035,-0.029 -1.54757,-0.01 -3.09705,-0.03 -4.64271,0.01 -1.52481,0.035 -3.06668,-0.1841 -4.6978,0.1975 -0.006,0.7577 -0.0153,1.4583 -0.0153,2.1589 0,13.2237 0,26.4456 0,39.6693 0,4.5155 -0.006,9.0309 0.01,13.5445 0.002,0.4899 -0.18419,1.0388 0.26774,1.4509 2.14762,0.1746 13.25599,0.1347 14.68583,-0.055 0.28102,-0.676 0.1424,-1.3938 0.1424,-2.0926 0.0113,-10.4495 0,-20.8989 0.0171,-31.3483 0.002,-1.352 0.10064,-2.706 0.21457,-4.0541 0.11393,-1.3596 0.50131,-2.6566 1.11273,-3.8795 0.97223,-1.9463 2.47233,-3.285 4.58766,-3.8585 2.61855,-0.7101 5.24657,-0.6228 7.81384,0.1975 1.68239,0.5374 2.89767,1.7261 3.47682,3.399 0.39687,1.1469 0.68169,2.3603 0.80323,3.5642 0.17468,1.7279 0.20887,3.4769 0.21266,5.2162 0.0171,10.2557 0.006,20.5115 0.0171,30.7673 0,0.6969 -0.14811,1.4165 0.22597,2.2425 4.83451,0 9.71839,0 14.82065,0 z M 184.86295,3140.1528 c 24.05102,0.4026 44.65941,8.7634 61.51564,25.6253 16.85623,16.8637 25.19605,37.4854 25.6062,61.2877 0.30383,0.067 0.48802,0.1442 0.6741,0.1442 6.06118,0 12.12236,-0.014 18.18164,-0.026 0.0589,0 0.12532,-0.023 0.1766,-0.051 0.0551,-0.032 0.095,-0.086 0.11583,-0.1025 0.0569,-0.084 0.11962,-0.133 0.12152,-0.1861 0.0247,-0.4501 0.0513,-0.9002 0.0513,-1.352 0.006,-6.4012 -0.74055,-12.7206 -1.96912,-18.9982 -1.84189,-9.4184 -4.93515,-18.4019 -9.24557,-26.9639 -5.77066,-11.4577 -13.36802,-21.5522 -22.7693,-30.285 -11.35711,-10.5482 -24.39094,-18.2747 -39.09765,-23.1605 -7.23658,-2.404 -14.64974,-4.0255 -22.24901,-4.7376 -2.43624,-0.228 -4.87628,-0.4292 -7.31822,-0.5621 -1.20009,-0.066 -2.41916,-0.1101 -3.65912,0.084 -0.057,0.3703 -0.12912,0.6153 -0.12912,0.8602 -0.008,6.0574 -0.006,12.1147 -0.006,18.4247 z m 34.66189,571.1637 c -0.3456,0.8525 -0.0398,1.7468 0.0285,2.6146 0.35509,4.4073 1.81721,8.4177 4.46613,11.9724 2.93754,3.9421 6.82073,6.6118 11.37611,8.3512 3.51479,1.3425 7.17011,2.0393 10.90707,2.4097 5.69091,0.564 11.33243,0.338 16.9189,-0.9001 4.06927,-0.9019 7.8689,-2.4401 11.2109,-4.9883 3.77115,-2.8769 6.25488,-6.6194 7.48344,-11.1995 0.91525,-3.4123 1.04247,-6.8929 0.67599,-10.3679 -0.64182,-6.0838 -3.44074,-10.8462 -8.89238,-13.9053 -2.70969,-1.5191 -5.5466,-2.7173 -8.49174,-3.68 -4.71678,-1.5438 -9.55889,-2.6223 -14.35922,-3.8566 -2.68119,-0.6893 -5.40987,-1.2286 -7.97144,-2.3071 -1.29882,-0.5469 -2.58624,-1.1717 -3.77304,-1.9273 -4.5402,-2.892 -4.15282,-9.9786 -0.11773,-12.7643 1.3482,-0.9323 2.81602,-1.5798 4.39968,-1.9158 4.02179,-0.8546 8.06257,-0.9096 12.09197,-0.053 5.05858,1.0749 8.17082,4.1264 9.22848,9.221 0.0532,0.2525 0.0892,0.507 0.14052,0.7595 0.0741,0.3589 0.15381,0.7159 0.25444,1.1811 1.77735,0 3.44456,0 5.11365,0 1.6767,0 3.3534,0.023 5.03011,-0.01 1.65581,-0.029 3.323,0.1386 5.11363,-0.1386 -0.13862,-1.2038 -0.21836,-2.292 -0.39306,-3.363 -1.05767,-6.4485 -4.06547,-11.7615 -9.29496,-15.7434 -3.3382,-2.5407 -7.13593,-4.113 -11.19759,-5.0263 -6.17891,-1.39 -12.40719,-1.466 -18.63168,-0.3362 -3.50911,0.6362 -6.82832,1.8573 -9.87031,3.7655 -4.14331,2.5996 -7.05238,6.1923 -8.58476,10.8387 -1.48491,4.5024 -1.68619,9.1108 -0.76335,13.7498 0.67219,3.3762 2.27674,6.2758 4.77185,8.6721 1.63872,1.576 3.47303,2.8768 5.47633,3.9383 2.45333,1.2987 4.99971,2.4058 7.67901,3.1236 4.04078,1.0823 8.11386,2.045 12.17173,3.0647 2.55966,0.6437 5.13074,1.2419 7.66762,1.9673 1.67481,0.4784 3.25275,1.2304 4.65982,2.2899 1.1583,0.8717 2.08495,1.9275 2.55967,3.3193 1.11652,3.2755 0.36458,7.9582 -2.8483,10.5691 -1.37098,1.1146 -2.90336,1.9254 -4.60475,2.3717 -4.97503,1.3102 -9.94626,1.257 -14.88141,-0.2032 -1.74126,-0.5146 -3.33441,-1.3615 -4.77185,-2.4876 -2.55967,-2.0089 -4.06357,-4.6104 -4.46423,-7.848 -0.0455,-0.374 -0.11773,-0.7461 -0.1861,-1.1848 -0.35888,-0.055 -0.6665,-0.1348 -0.97601,-0.1444 -4.28573,-0.1557 -12.69391,-0.055 -14.35162,0.1672 z M 92.557186,3657.233 c 0,0.8791 0,1.5798 0,2.2805 0,16.3226 0,32.6453 0,48.9679 0,0.8393 0.01329,1.6767 0.01709,2.516 0.0076,2.3336 0.320908,4.6314 0.8374,6.9004 1.498204,6.5872 5.123139,11.5946 11.070384,14.8796 2.04128,1.1279 4.1794,2.0051 6.42007,2.6337 5.53709,1.5572 11.18052,1.8021 16.87711,1.3406 3.54708,-0.2867 7.0315,-0.9228 10.37541,-2.1704 8.50881,-3.1787 13.86931,-9.0975 15.73779,-18.081 0.58296,-2.7988 0.74056,-5.6188 0.74056,-8.4614 -0.002,-16.2581 -0.002,-32.5161 -0.002,-48.7742 0,-0.3228 0.0247,-0.6475 -0.008,-0.9665 -0.0361,-0.3589 -0.12153,-0.7121 -0.1823,-1.0406 -4.23826,-0.2544 -14.69911,-0.1577 -16.24479,0.1728 0,0.6666 0,1.3654 0,2.0641 0,15.9998 0.008,31.9996 -0.0133,47.9995 -0.002,1.6083 -0.0721,3.232 -0.30951,4.8213 -0.79563,5.3357 -3.63253,9.0044 -8.95125,10.4969 -3.08756,0.8677 -6.24917,1.0234 -9.39559,0.4917 -3.77684,-0.638 -6.67261,-2.6716 -8.50882,-6.063 -0.57725,-1.0672 -1.01399,-2.2293 -1.36908,-3.3933 -0.58675,-1.9236 -0.75955,-3.9155 -0.75765,-5.9264 0.009,-7.096 0.002,-14.194 0.002,-21.2901 0,-9.0974 0.006,-18.193 -0.009,-27.2905 -0.002,-0.6817 0.1728,-1.405 -0.20128,-2.1038 -5.31302,0 -10.584274,0 -16.125164,0 z m 82.866494,20.1221 c -0.31142,-0.097 -0.49181,-0.2012 -0.67219,-0.2012 -4.38639,-0.012 -8.77087,-0.014 -13.15725,-0.01 -0.17659,0 -0.35319,0.1158 -0.58675,0.1956 -0.21837,0.75 -0.11962,1.5247 -0.11962,2.2824 -0.006,24.7707 -0.006,49.5414 -0.006,74.3121 0,1.9995 -0.009,3.999 0.008,5.9985 0.004,0.433 0.0949,0.8659 0.14052,1.2589 0.23166,0.061 0.35698,0.1216 0.48231,0.1216 4.5155,0.01 9.03101,0.01 13.54461,0 0.22977,0 0.45952,-0.1405 0.63612,-0.1994 0.0418,-0.1632 0.0589,-0.224 0.0702,-0.2848 0.0113,-0.063 0.0247,-0.1272 0.0247,-0.1918 0.004,-10.5785 0.008,-21.159 0.0113,-31.7376 0,-0.3855 0.0171,-0.7728 0.0304,-1.1583 0.002,-0.063 0.01,-0.1386 0.0474,-0.1804 0.038,-0.041 0.11583,-0.049 0.26585,-0.1063 0.38547,0.4443 0.79561,0.9171 1.20768,1.3899 2.79513,3.1977 6.20738,5.391 10.3602,6.3878 2.08685,0.5013 4.206,0.6362 6.34031,0.524 6.78086,-0.3569 12.27047,-3.1634 16.30556,-8.6776 3.04198,-4.1586 4.60854,-8.9001 5.33962,-13.9415 0.6608,-4.5573 0.6627,-9.1279 0.0152,-13.6909 -0.66839,-4.7149 -2.14382,-9.1506 -4.69399,-13.1971 -2.32422,-3.6877 -5.41557,-6.534 -9.369,-8.4158 -4.39018,-2.0887 -9.03101,-2.5881 -13.78197,-1.9501 -3.66861,0.4917 -6.91757,2.0166 -9.5437,4.6939 -0.71967,0.7331 -1.3425,1.5629 -2.009,2.3489 -0.19179,0.226 -0.3228,0.5888 -0.79563,0.3134 -0.0323,-1.9464 -0.0646,-3.9269 -0.095,-5.8865 z m 249.04192,56.8351 c 0,-0.7368 0,-1.3102 0,-1.8837 0,-11.2223 0.002,-22.4447 -0.006,-33.6669 0,-1.1602 -0.038,-2.3223 -0.0912,-3.4807 -0.10634,-2.3298 -0.53358,-4.6122 -1.23427,-6.8301 -1.52288,-4.8213 -4.58386,-8.281 -9.24747,-10.3014 -2.14191,-0.9267 -4.3655,-1.5533 -6.67072,-1.8855 -4.94844,-0.7121 -9.90068,-0.6856 -14.83963,0.051 -3.07806,0.4595 -6.0251,1.3805 -8.73668,2.9508 -3.60974,2.0907 -6.13713,5.0795 -7.35241,9.0937 -0.42914,1.4128 -0.76144,2.8655 -1.0064,4.3219 -0.16519,0.9855 -0.3437,2.0147 -0.0512,3.002 1.85708,0.2525 12.27427,0.2279 13.75918,-0.024 0.3114,-0.9685 0.56965,-1.9672 0.95132,-2.9167 1.14502,-2.854 3.22427,-4.6465 6.28525,-5.1136 2.62993,-0.4007 5.27315,-0.3893 7.86891,0.3133 1.06145,0.2867 2.06026,0.7367 2.94703,1.4089 0.8431,0.64 1.54377,1.4223 1.77543,2.4609 0.5146,2.3129 0.30003,5.3758 -3.23187,6.5359 -1.46212,0.4805 -2.96792,0.8716 -4.48132,1.1469 -3.86609,0.7027 -7.75306,1.2856 -11.62106,1.9769 -2.86728,0.5126 -5.63203,1.3822 -8.1936,2.7988 -3.86798,2.1401 -6.38778,5.3415 -7.45304,9.6519 -0.71967,2.9148 -0.8431,5.8828 -0.4994,8.8392 0.40065,3.4408 1.88367,6.4068 4.43005,8.7975 1.98052,1.861 4.37689,2.9413 6.98593,3.5453 4.06357,0.9398 8.16892,1.0671 12.29514,0.4385 4.3712,-0.6664 8.29995,-2.2919 11.57929,-5.3319 0.21838,-0.2032 0.39687,-0.5393 0.90956,-0.3532 0.22406,1.4469 0.3133,2.9888 0.98172,4.4546 4.56297,0 9.12593,0 13.94716,0 z m 43.91317,-72.2899 c 0,0.4937 0,0.8755 0,1.2552 0.002,16.6416 -0.0113,33.2834 0.0247,49.9249 0.004,1.7964 0.169,3.6136 0.47851,5.3833 1.4963,8.5298 6.49032,14.0155 14.78837,16.3378 5.182,1.4507 10.48744,1.4565 15.68463,0.043 6.72008,-1.8286 11.42357,-6.0422 13.87881,-12.618 1.06906,-2.8635 1.54567,-5.8637 1.57605,-8.9095 0.0532,-5.1592 0.0208,-10.3203 0.0113,-15.4814 0,-0.3646 -0.11203,-0.7291 -0.18609,-1.1792 -2.33371,0 -4.58766,-0.025 -6.84161,0.01 -2.29953,0.032 -4.60665,-0.1368 -7.00302,0.112 -0.0266,0.7272 -0.0684,1.3595 -0.0684,1.9919 -0.006,3.9989 0.004,7.998 -0.008,11.997 -0.004,1.031 0.019,2.0736 -0.11584,3.0914 -0.1519,1.1431 -0.37596,2.2919 -0.72915,3.3875 -0.79753,2.4743 -2.3394,4.3162 -4.94085,4.9922 -2.91095,0.7556 -5.76876,0.6988 -8.32082,-1.1413 -0.60954,-0.4387 -1.12414,-1.0747 -1.5229,-1.7204 -0.46713,-0.7595 -0.8355,-1.6007 -1.11273,-2.4514 -0.52219,-1.6008 -0.75386,-3.266 -0.75386,-4.9522 -0.008,-7.6753 -0.01,-15.3524 0,-23.0275 0,-0.3589 0.11774,-0.7178 0.19369,-1.1395 0.80512,0 1.51149,0 2.21597,0 9.02911,0 18.06011,0 27.08923,-0.01 0.67788,0 1.39945,0.1691 2.01089,-0.1955 0.22596,-2.9091 0.16141,-8.8507 -0.12722,-10.4059 -0.66271,-0.022 -1.35959,-0.059 -2.05458,-0.059 -9.0291,0 -18.06011,0 -27.08921,-0.01 -0.69119,0 -1.40517,0.1215 -2.19319,-0.2146 -0.10824,-1.2076 -0.0361,-2.4267 -0.0494,-3.6383 -0.0133,-1.2892 -0.004,-2.5805 -0.004,-3.8698 0,-1.2248 0.008,-2.4514 -0.002,-3.6762 -0.0113,-1.2741 0.0494,-2.5521 -0.0437,-3.7921 -1.6558,-0.2752 -12.65403,-0.3037 -14.78646,-0.033 z m 126.66762,72.1645 c 0,-0.4329 0,-0.75 0,-1.0691 -0.002,-12.8362 0.0113,-25.6726 -0.0208,-38.507 -0.004,-1.4755 -0.10254,-2.9813 -0.41015,-4.4187 -1.47922,-6.9366 -5.37949,-11.7388 -12.4034,-13.6471 -4.1965,-1.1413 -8.43475,-0.9988 -12.64454,-0.1216 -3.49581,0.7292 -6.51501,2.4173 -8.93606,5.07 -0.82221,0.9001 -1.5115,1.9217 -2.25396,2.8938 -0.18608,0.2451 -0.29622,0.5982 -0.75764,0.3571 0,-1.2058 0.0247,-2.4306 -0.008,-3.6516 -0.0323,-1.2152 0.14622,-2.4419 -0.11772,-3.6382 -1.61594,-0.2868 -12.59518,-0.2735 -14.08389,0.01 -0.0341,0.049 -0.093,0.097 -0.0987,0.1481 -0.0341,0.319 -0.0816,0.6381 -0.0798,0.9571 0.006,18.4474 0.0152,36.8949 0.0285,55.3405 0,0.059 0.0304,0.1215 0.0607,0.1728 0.0323,0.055 0.0835,0.099 0.23545,0.2715 1.55138,0.01 3.21669,0.02 4.88199,0.026 1.61215,0 3.22617,0.029 4.83641,-0.01 1.65011,-0.033 3.31542,0.1594 5.04909,-0.1501 0,-0.7291 0,-1.3653 0,-2.0033 0,-6.7087 0,-13.4154 0,-20.1241 0,-3.5471 -0.006,-7.0961 0.008,-10.6431 0.01,-2.271 0.29433,-4.508 1.13363,-6.6347 1.19249,-3.025 3.37238,-4.9636 6.5302,-5.7897 2.41536,-0.6323 4.86679,-0.6171 7.29734,-0.2429 3.3534,0.5163 5.5181,2.4153 6.03839,5.856 0.27913,1.8419 0.49181,3.7142 0.4994,5.5732 0.0474,10.643 0.0228,21.2862 0.0266,31.9275 0,0.6912 0.0341,1.3824 0.0532,2.047 1.821,0.2507 13.23508,0.2564 15.13584,0 z M 184.99396,3178.996 c -0.0589,0.3171 -0.12532,0.5013 -0.12532,0.6874 -0.008,5.8694 -0.0113,11.7407 -0.002,17.61 0,0.2982 0.12343,0.5945 0.20888,0.9761 7.90498,0.1405 14.67823,2.9414 20.21722,8.45 5.58646,5.5579 8.41387,12.3825 8.59047,20.3767 0.43864,0.049 0.80511,0.1234 1.1735,0.1234 5.67571,0.01 11.35141,0.01 17.02712,0 0.36079,0 0.71967,-0.1063 1.05958,-0.1614 0.60383,-26.2954 -22.45979,-48.8445 -48.14955,-48.0603 z m 279.08198,511.8374 c 0.0512,-0.2659 0.11773,-0.4481 0.11773,-0.6305 -0.008,-4.7072 -0.0208,-9.4164 -0.0361,-14.1237 0,-0.063 -0.0133,-0.1348 -0.0474,-0.1822 -0.0341,-0.049 -0.10255,-0.076 -0.33989,-0.2375 -1.61215,-0.057 -3.40847,0.012 -5.2029,0.1178 -2.96033,0.1765 -5.67381,1.0956 -8.14423,2.7438 -1.73936,1.1602 -3.17491,2.6242 -4.38828,4.3181 -0.1671,0.2335 -0.31142,0.5961 -0.72727,0.3645 -0.16709,-1.971 0.11773,-3.961 -0.1576,-5.9168 -0.30762,-0.068 -0.49181,-0.1463 -0.67791,-0.1463 -4.19269,-0.01 -8.38538,-0.01 -12.57808,0.01 -0.23736,0 -0.47661,0.1233 -0.82789,0.2221 0,0.7387 0,1.4413 0,2.1439 0,17.4829 0,34.9638 0,52.4466 0,0.3873 -0.0247,0.7766 0.008,1.1603 0.0304,0.3589 0.12153,0.712 0.18229,1.0386 2.71537,0.2032 13.36611,0.1443 14.84344,-0.086 0.0266,-0.4899 0.0741,-0.9969 0.0759,-1.5058 0.008,-2.5806 0.004,-5.1612 0.004,-7.7417 0,-6.5796 -0.008,-13.1591 0.008,-19.7406 0.006,-2.328 0.1766,-4.637 0.97602,-6.8587 1.1659,-3.2452 3.37428,-5.4326 6.62324,-6.5625 1.34439,-0.4671 2.72677,-0.8013 4.15661,-0.8222 1.99382,-0.029 3.98953,-0.01 6.13334,-0.01 z m 57.42739,-13.5903 c -0.0646,0.3078 -0.13672,0.4919 -0.13672,0.6741 0.004,18.6374 0.0133,37.2768 0.0266,55.9141 0,0.059 0.0494,0.1177 0.0816,0.1728 0.0323,0.051 0.0741,0.097 0.11012,0.1442 0.12344,0.033 0.24876,0.093 0.37218,0.093 4.57817,0.01 9.15634,0.01 13.7364,0 0.22976,0 0.45953,-0.1158 0.76904,-0.1994 0,-18.7133 0,-37.345 -0.006,-55.9748 0,-0.2429 -0.0759,-0.486 -0.11014,-0.7005 -1.45832,-0.2944 -11.86032,-0.378 -14.84343,-0.1236 z m 0.0285,-21.0204 c -0.0912,0.414 -0.1671,0.5962 -0.1671,0.7785 -0.008,4.1262 -0.0113,8.2506 0.002,12.3769 0,0.2924 0.13102,0.5829 0.19179,0.8412 3.8471,0.2601 13.33004,0.1632 14.76367,-0.15 0.0437,-0.1652 0.13103,-0.3475 0.13103,-0.5279 -0.002,-4.2535 -0.0113,-8.507 -0.0285,-12.7604 0,-0.112 -0.10255,-0.2222 -0.26584,-0.5563 -4.76426,0 -9.64054,0 -14.62696,0 z"
   id="path4"
   inkscape:connector-curvature="0"
   style="fill:none;stroke-width:0.18988656" />
	<path
   class="st1"
   d="m 155.82929,3290.9209 c 0,-5.8429 0.002,-11.4368 -0.002,-16.9531 -15.41499,-6.179 -21.4192,-20.73 -18.68484,-33.4485 2.61664,-12.1661 13.20092,-22.5225 27.60571,-22.9289 14.45036,-0.4082 25.38024,9.4184 28.6235,20.8496 2.09825,7.3961 1.48872,14.5642 -2.05647,21.404 -3.50341,6.76 -9.00822,11.323 -16.12896,14.0858 0,5.4364 -0.002,10.7818 0.006,16.127 0,0.2432 0.0873,0.4862 0.1557,0.8394 0.74437,0.02 1.43934,0.051 2.13623,0.051 17.28917,0 34.57834,0 51.86751,0 1.16211,0 2.30143,0.04 3.43695,0.4045 4.24776,1.3596 6.78084,5.4251 6.64983,9.0196 -0.019,0.5146 -0.002,1.033 -0.002,1.5475 0,47.0977 0,94.1952 0,141.2928 0,0.7652 0,1.5324 0,2.4115 0.47471,0.068 0.8336,0.1443 1.19439,0.1652 0.45003,0.027 0.90195,0.01 1.35389,0.01 24.06243,0 48.12674,0 72.18917,0 0.76334,0 1.52669,-0.025 2.39826,-0.037 0.0513,-0.4595 0.11585,-0.8241 0.12913,-1.1905 0.0209,-0.5792 0.006,-1.1602 0.006,-1.7413 0,-47.2267 0,-94.4533 -0.002,-141.68 0,-1.2286 0.0247,-2.4362 0.43484,-3.6269 1.37099,-3.9762 4.86869,-6.5283 9.08608,-6.5643 0.19367,0 0.38736,0 0.58105,0 44.96514,0 89.93028,0 134.89541,0 1.1659,0 2.30713,0.065 3.43316,0.4386 4.30092,1.4356 6.65172,5.4896 6.55297,8.8944 -0.0152,0.5164 -0.002,1.0329 -0.002,1.5475 0,43.6131 0,87.2281 0,130.8413 0,0.6932 0,1.3862 0,2.1533 0.71588,0.025 1.03868,-0.4292 1.41085,-0.7272 7.7132,-6.158 15.4169,-12.3256 23.12249,-18.4912 18.5861,-14.8681 37.17219,-29.7362 55.75449,-44.61 1.32542,-1.0615 2.73057,-1.9065 4.40347,-2.3224 6.02321,-1.4943 11.82044,2.9718 12.01033,8.7937 0.0266,0.8374 0.0683,1.6747 0.0683,2.5121 0.004,17.5494 0.004,35.0968 0.004,52.6461 0,0.6987 0,1.3977 0,2.1306 0.70068,0.1594 1.00829,-0.3418 1.37477,-0.6343 6.45615,-5.1477 12.89899,-10.3089 19.34755,-15.4662 19.84505,-15.8763 39.69199,-31.749 59.53133,-47.6331 1.37858,-1.1032 2.83691,-1.9804 4.58387,-2.3849 6.00041,-1.3881 11.65332,3.0685 11.86221,8.7841 0.0285,0.7729 0.0702,1.5457 0.0702,2.3185 0.004,83.1628 -0.002,166.3255 0.0228,249.49 0,2.6282 -0.55256,4.9846 -2.30712,6.9766 -1.78683,2.0279 -4.01231,3.1901 -6.74477,3.2944 -0.57915,0.022 -1.16021,0.01 -1.74126,0.01 -186.37557,0 -372.75111,0 -559.126677,0 -0.645614,0 -1.291228,0.022 -1.934943,-0.01 -4.946544,-0.2146 -8.922769,-4.5477 -8.932264,-9.2208 0,-0.3875 0,-0.7748 0,-1.1622 0,-109.2911 0,-218.5821 0.002,-327.8751 0,-1.0938 -0.0114,-2.1761 0.292424,-3.2604 1.361487,-4.8478 5.886484,-7.0809 9.319633,-7.0637 14.127557,0.076 28.257017,0.032 42.384577,0.032 5.74217,0 11.48244,0 17.22461,0 0.62663,-0.01 1.26085,-0.022 2.14002,-0.031 z m 296.35785,107.6124 c -0.85069,0.6457 -1.36528,1.0216 -1.86278,1.4185 -2.26914,1.8097 -4.5307,3.6288 -6.79605,5.4422 -23.56871,18.8557 -47.16022,37.683 -70.67957,56.5995 -2.87488,2.3128 -5.88079,3.3572 -9.56458,3.3515 -40.38129,-0.068 -80.76445,-0.043 -121.14573,-0.043 -0.5165,0 -1.03488,-0.027 -1.54758,0.012 -0.36268,0.027 -0.71777,0.1424 -1.14121,0.2336 0,51.3092 0,102.5274 0.008,153.7474 0,0.1765 0.11013,0.355 0.15381,0.4899 0.0987,0.066 0.14622,0.1272 0.19938,0.1328 0.31901,0.034 0.63992,0.078 0.95893,0.078 134.81946,-0.012 269.64081,-0.025 404.46028,-0.039 0.0627,0 0.13101,-0.014 0.18418,-0.043 0.0551,-0.031 0.093,-0.088 0.13861,-0.1329 0.038,-0.049 0.10254,-0.097 0.10824,-0.15 0.0304,-0.2545 0.0646,-0.5127 0.0646,-0.7691 -0.002,-73.2221 -0.008,-146.4443 -0.0133,-219.6664 0,-0.063 -0.006,-0.1367 -0.0361,-0.1881 -0.0285,-0.045 -0.095,-0.068 -0.26205,-0.1764 -0.41015,0.2904 -0.88297,0.5905 -1.31591,0.9379 -7.25366,5.7991 -14.50354,11.604 -21.7553,17.407 -18.93359,15.151 -37.86908,30.3002 -56.80647,45.4474 -0.5032,0.4026 -1.01209,0.8032 -1.55516,1.1469 -5.57698,3.5205 -13.24081,0.6779 -14.69913,-5.9225 -0.26014,-1.1811 -0.30952,-2.4268 -0.31141,-3.644 -0.0208,-14.1275 -0.0133,-28.2569 -0.0133,-42.3846 0,-4.0636 0.002,-8.129 -0.006,-12.1926 0,-0.2887 0.12343,-0.6608 -0.39116,-0.7842 -0.37788,0.283 -0.79942,0.5772 -1.20009,0.8982 -5.33961,4.2686 -10.67542,8.5429 -16.01313,12.8135 -20.84765,16.6815 -41.69719,33.3631 -62.54863,50.0389 -0.55257,0.4424 -1.10894,0.8924 -1.71468,1.2571 -5.66242,3.4199 -13.12496,0.4747 -14.5643,-5.9605 -0.26394,-1.1793 -0.32091,-2.4269 -0.32091,-3.6421 -0.019,-17.7411 -0.0133,-35.4822 -0.0133,-53.2233 0.002,-0.6968 0.002,-1.3918 0.002,-2.4876 z M 123.1745,3619.7872 c 0.019,-0.7253 0.0532,-1.483 0.0532,-2.2406 0.004,-20.9673 0.002,-41.9364 0.006,-62.9037 0,-0.8374 -0.009,-1.6805 0.0798,-2.5122 0.45953,-4.28 3.19769,-7.5575 7.27076,-8.5393 1.23426,-0.298 2.55587,-0.3188 3.83761,-0.3208 18.32025,-0.02 36.6424,-0.014 54.96266,-0.01 0.77284,0 1.54568,0.047 2.31852,0.074 3.96673,0.1366 7.66571,3.285 8.60945,7.1757 0.30952,1.2742 0.33041,2.5522 0.33041,3.8414 0.002,20.9673 0.002,41.9365 0.002,62.9038 0,0.5165 -0.019,1.033 0.008,1.5476 0.019,0.3646 0.10064,0.7253 0.169,1.1905 2.21978,0 4.34081,0 6.45994,0 2.06407,0 4.12813,0.025 6.1922,-0.01 2.10395,-0.032 4.21738,0.1425 6.43336,-0.1309 0.01,-0.9286 0.0266,-1.7546 0.0266,-2.5825 0.002,-101.3558 0.002,-202.7115 0.002,-304.0653 0,-0.5166 0.0171,-1.0331 -0.006,-1.5476 -0.0171,-0.3627 -0.0874,-0.7216 -0.15002,-1.2058 -0.8184,0 -1.51909,0 -2.21976,0 -37.02978,0 -74.05956,0 -111.08744,0 -0.45193,0 -0.90576,-0.027 -1.35389,0.01 -0.36269,0.031 -0.71967,0.1386 -1.15261,0.2278 0,102.9223 0,205.7573 0.008,308.5904 0,0.1785 0.10633,0.3569 0.1576,0.5165 1.60264,0.2678 17.21132,0.2715 19.04373,-0.012 z m 328.96327,-246.3929 c 0,-20.9293 0,-41.6953 -0.002,-62.4594 0,-0.063 -0.017,-0.1329 -0.0494,-0.1861 -0.0323,-0.051 -0.0949,-0.084 -0.29243,-0.2488 -0.60763,-0.014 -1.37098,-0.043 -2.13433,-0.043 -36.95192,0 -73.90384,0 -110.85767,0 -0.45193,0 -0.90386,-0.02 -1.35389,0.01 -0.36649,0.021 -0.73107,0.097 -1.21527,0.1652 -0.01,0.8545 -0.0266,1.6178 -0.0266,2.3793 -0.002,43.4042 -0.002,86.8104 -0.002,130.2147 0,0.4519 -0.0209,0.9038 0.008,1.3539 0.0228,0.3683 0.10253,0.7349 0.1538,1.0899 0.28103,0.053 0.46712,0.1177 0.65321,0.1177 7.93157,0.01 15.86502,0 23.79659,0.02 0.61333,0 1.13362,-0.1387 1.58935,-0.5527 0.28673,-0.2601 0.59814,-0.4879 0.90005,-0.731 29.15329,-23.3218 58.30467,-46.6457 87.45606,-69.9694 0.45572,-0.3589 0.88867,-0.7424 1.37668,-1.1546 z m -309.4961,189.427 c -0.019,0.678 -0.057,1.371 -0.057,2.0642 -0.004,17.5986 -0.002,35.1992 -0.002,52.7978 0,0.3874 -0.0247,0.7767 0.008,1.1602 0.0304,0.3627 0.12153,0.7197 0.19748,1.1451 12.66164,0 25.22644,0 37.79312,-0.01 0.17849,0 0.3551,-0.091 0.64751,-0.1709 0.0208,-0.695 0.0626,-1.3901 0.0626,-2.0831 0.004,-15.3429 0.002,-30.6857 0.002,-46.0285 0,-2.5787 0.008,-5.1573 -0.008,-7.736 -0.002,-0.4273 -0.10065,-0.8545 -0.16141,-1.3349 -12.68062,0 -25.24731,0 -37.8159,0.01 -0.17849,0 -0.35509,0.097 -0.6665,0.1861 z M 165.47932,3256.54 c 5.22948,0.089 9.89499,-4.2402 9.91778,-9.7924 0.0228,-5.465 -4.33701,-9.8742 -9.80575,-9.9121 -5.57317,-0.037 -9.91017,4.6085 -9.90448,9.8114 0.008,5.4611 4.34081,9.8684 9.79245,9.8931 z"
   id="path6"
   inkscape:connector-curvature="0"
   style="fill:#000000;stroke-width:0.18988656" />
	<path
   class="st2"
   d="m 184.86295,3082.0513 c 0,-6.2871 -0.002,-12.3464 0.006,-18.4056 0,-0.2431 0.0759,-0.4882 0.12912,-0.8109 0.86018,-0.2354 1.69569,-0.1177 2.51599,-0.1329 0.83741,-0.016 1.67671,-0.014 2.5141,0.023 1.09375,0.047 2.1837,0.1632 3.27745,0.2012 5.22378,0.1823 10.40768,0.7653 15.57638,1.5116 7.72649,1.1146 15.32766,2.7932 22.80919,5.0262 24.56561,7.3335 46.26016,19.7349 65.03234,37.1684 19.87163,18.4569 34.36946,40.5029 43.43845,66.0805 3.06287,8.6361 5.351,17.4792 6.88339,26.5234 1.13172,6.6802 1.90835,13.3927 2.19888,20.1583 0.10824,2.5046 0.0171,5.0187 0.0171,7.6487 -0.30951,0.055 -0.66651,0.1747 -1.02539,0.1766 -5.67571,0.012 -11.35142,0.012 -17.02712,0 -0.36649,0 -0.73487,-0.082 -1.22288,-0.1387 -0.0398,-2.2065 -0.0418,-4.3218 -0.12912,-6.4333 -0.0855,-2.0604 -0.21837,-4.1186 -0.40256,-6.1714 -0.19179,-2.1172 -0.43674,-4.2307 -0.72157,-6.3364 -0.28483,-2.1059 -0.61333,-4.2079 -0.98741,-6.3005 -0.37598,-2.0925 -0.79943,-4.1774 -1.26276,-6.253 -0.44813,-2.0109 -0.94182,-4.0141 -1.4754,-6.0041 -0.55068,-2.0528 -1.13363,-4.0997 -1.77165,-6.1258 -0.63801,-2.0261 -1.32921,-4.0369 -2.06216,-6.0289 -0.73486,-1.9938 -1.5191,-3.9706 -2.33751,-5.932 -0.79372,-1.9028 -1.62543,-3.7902 -2.5008,-5.6569 -0.90197,-1.9253 -1.84001,-3.8337 -2.82741,-5.7174 -0.98552,-1.8836 -2.0185,-3.7426 -3.08756,-5.5808 -1.03678,-1.783 -2.11154,-3.5433 -3.22808,-5.2768 -1.15071,-1.7888 -2.34129,-3.5528 -3.56417,-5.2922 -1.22287,-1.7394 -2.47801,-3.4616 -3.77494,-5.1478 -1.29692,-1.6862 -2.63752,-3.3421 -4.0066,-4.9695 -1.32921,-1.5778 -2.6926,-3.1273 -4.09016,-4.6445 -1.44124,-1.5646 -2.91476,-3.1008 -4.42057,-4.6048 -1.5039,-1.5039 -3.03818,-2.9793 -4.60664,-4.4187 -1.52099,-1.3937 -3.07805,-2.7495 -4.65791,-4.0749 -1.63113,-1.3671 -3.28694,-2.704 -4.97313,-4.0008 -1.6862,-1.2951 -3.40467,-2.554 -5.14593,-3.7751 -1.74127,-1.2209 -3.5072,-2.4078 -5.30163,-3.5508 -1.73747,-1.1071 -3.5091,-2.1666 -5.29404,-3.1959 -1.8419,-1.0614 -3.70089,-2.0943 -5.58457,-3.078 -1.88367,-0.9836 -3.79013,-1.9234 -5.71558,-2.8217 -1.92355,-0.8982 -3.87178,-1.7507 -5.83142,-2.5672 -1.90076,-0.7918 -3.81673,-1.5533 -5.75356,-2.2578 -1.99571,-0.7253 -4.0142,-1.3937 -6.03839,-2.0336 -2.02419,-0.64 -4.06167,-1.2514 -6.11054,-1.8059 -1.98812,-0.5393 -3.99143,-1.0254 -6.00423,-1.4698 -2.07546,-0.4594 -4.16041,-0.881 -6.25485,-1.2417 -2.09446,-0.3609 -4.20031,-0.659 -6.30994,-0.9286 -2.10774,-0.2697 -4.22307,-0.509 -6.34032,-0.6912 -2.05266,-0.1785 -4.11673,-0.2373 -6.16941,-0.4083 -2.08875,-0.1765 -4.21168,0.084 -6.38018,-0.2373 z"
   id="path8"
   inkscape:connector-curvature="0"
   style="fill:#000000;stroke-width:0.18988656" />
	<path
   class="st3"
   d="m 2968.1484,3640.8345 c 7.2389,-0.8808 48.7936,-1.1072 60.9142,-0.3523 0.3863,1.9796 0.99,4.1102 1.1912,6.2743 1.6694,17.5648 10.9969,29.392 26.9008,36.5051 16.6924,7.4738 49.4478,7.9939 70.2923,-7.239 13.6308,-9.9651 20.92,-23.042 21.2305,-39.8434 0.2432,-13.0939 0.05,-26.1879 0.05,-39.8017 -1.0231,0.5284 -1.9206,0.6795 -2.2311,1.1911 -10.0657,16.5246 -25.7684,24.6191 -43.8697,28.4274 -19.8128,4.1688 -39.7597,3.3971 -59.2034,-2.1977 -22.715,-6.5344 -40.7242,-19.9218 -53.8267,-39.7178 -10.0822,-15.2328 -15.5934,-32.1936 -18.7137,-50.0267 -3.3637,-19.192 -4.4205,-38.4679 -1.7613,-57.8527 4.2191,-30.7677 15.3667,-58.4149 38.1491,-80.1821 25.9611,-24.8037 57.0642,-33.2337 92.1853,-26.3806 17.4137,3.3972 31.5896,12.5151 42.729,26.3386 1.7447,2.1643 3.4643,4.3451 5.3852,6.761 1.8955,-1.9462 1.015,-4.0012 1.1659,-5.8131 0.1342,-1.7028 0.025,-3.4139 0.025,-5.1251 0,-1.9964 0,-3.9928 0,-5.9808 0,-1.7111 -0.05,-3.4223 0.018,-5.1251 0.068,-1.946 0.2433,-3.8837 0.369,-5.8046 1.1074,-0.3438 1.9039,-0.8135 2.7095,-0.8135 20.2239,-0.042 40.4559,-0.042 60.6796,0 0.7969,0 1.5936,0.4781 2.9275,0.9059 0,2.466 0,5.0076 0,7.5409 0,82.0608 -0.033,164.1301 0.025,246.1911 0.01,12.0369 -1.0906,23.9228 -4.3533,35.4985 -9.6045,34.1229 -31.2792,57.6264 -63.8754,70.9383 -24.4851,10.007 -50.0604,12.6157 -76.2983,9.705 -15.9964,-1.7698 -31.338,-5.7962 -45.8074,-12.8086 -24.3677,-11.8105 -41.9574,-30.0127 -51.4278,-55.63 -4.2024,-11.3323 -6.2828,-24.8707 -5.5779,-35.5824 z m 183.0789,-137.7077 c -0.8556,-8.4888 -1.4175,-17.0278 -2.6506,-25.4579 -1.5016,-10.1915 -4.5381,-19.9637 -9.9233,-28.8887 -6.6434,-11.0051 -16.0213,-18.3531 -28.5697,-21.4567 -10.695,-2.6423 -21.4486,-2.5919 -32.1518,-0.1511 -14.2347,3.2463 -24.5436,11.7015 -31.0946,24.5773 -2.4328,4.7812 -4.3369,9.9315 -5.7544,15.1153 -4.5713,16.7175 -4.9322,33.8293 -3.1036,50.9075 1.5351,14.3688 6.4923,27.5969 15.7531,39.0718 21.1044,26.1709 59.2199,24.4514 79.0913,2.6255 6.6519,-7.306 11.3241,-15.6186 14.2347,-25.0218 3.1456,-10.2082 3.8919,-20.6766 4.1689,-31.3212 z"
   id="path10"
   inkscape:connector-curvature="0"
   style="fill:#000000;stroke-width:0.83881152" />
	<path
   class="st3"
   d="m 1796.8571,3640.3064 h -65.486 c -1.6525,-3.6489 -0.9898,-6.828 -0.9982,-9.9065 -0.05,-45.3042 0.01,-90.6083 -0.076,-135.9126 -0.017,-7.6835 -0.1594,-15.4089 -0.9395,-23.0421 -0.5368,-5.3264 -1.8034,-10.6865 -3.5481,-15.7445 -2.5584,-7.3899 -7.9184,-12.6409 -15.3588,-15.0147 -11.3406,-3.6152 -22.9498,-4.0012 -34.5169,-0.8724 -9.3445,2.5332 -15.971,8.4469 -20.2657,17.0446 -2.701,5.402 -4.4123,11.1311 -4.9155,17.137 -0.5033,5.9555 -0.931,11.9362 -0.9479,17.9086 -0.076,46.1597 -0.025,92.3196 -0.076,138.4794 0,3.0868 0.6123,6.2575 -0.629,9.2436 -6.3163,0.8388 -55.3867,1.0151 -64.8738,0.2433 -1.9963,-1.8202 -1.1743,-4.2444 -1.1827,-6.4086 -0.068,-19.9469 -0.042,-39.8938 -0.042,-59.8323 v -175.2361 c 0,-3.0952 0.042,-12.1821 0.068,-15.5373 7.2054,-1.686 14.025,-0.713 20.7523,-0.8724 6.8362,-0.1677 13.6726,-0.05 20.5089,-0.033 6.7943,0.025 13.5887,0.084 20.7774,0.1259 1.4175,11.4077 -0.1342,28.3794 1.0317,40.6092 1.4008,-1.8201 2.0718,-2.5835 2.6171,-3.4223 1.5433,-2.3906 2.9944,-4.84 4.5631,-7.2221 9.7218,-14.7463 23.3189,-24.0152 40.4473,-27.8904 15.7279,-3.5567 31.6149,-3.6238 47.5189,-0.9396 11.3156,1.9125 21.1044,6.9622 29.2158,14.8973 5.2761,5.1587 9.856,11.0219 14.7043,16.6085 1.4511,1.6775 2.7681,3.4727 4.5799,5.7627 1.3673,-2.1809 2.4242,-3.7496 3.3636,-5.3852 10.8291,-18.8566 27.3201,-29.5263 48.5673,-32.5544 16.8183,-2.399 33.6111,-1.8034 49.6406,4.6303 30.1554,12.0957 47.0074,34.7939 51.9647,66.5848 0.8303,5.3181 1.0064,10.7788 1.015,16.1807 0.075,53.8517 0.041,107.7034 0.041,161.5551 v 7.9184 c -1.4427,0.3607 -2.466,0.8471 -3.4892,0.8471 -19.6619,0.042 -39.3152,0.025 -58.9771,0 -0.5536,0 -1.099,-0.2432 -1.9293,-0.4445 -1.7195,-2.7261 -0.8555,-5.9304 -0.8555,-8.9333 -0.068,-45.8746 -0.017,-91.7493 -0.084,-137.6238 -0.01,-5.6871 -0.2599,-11.3994 -0.8052,-17.0615 -0.8054,-8.3294 -3.5901,-16.0297 -7.9604,-23.2182 -13.5802,-22.346 -42.5193,-21.2053 -56.8377,-6.7273 -8.9587,9.0591 -14.0501,19.9637 -15.5684,32.4955 -0.6459,5.3516 -0.7381,10.8039 -0.7466,16.2058 -0.059,45.0191 -0.024,90.0381 -0.042,135.0571 0.018,3.0953 -0.1257,6.1904 -0.2264,10.3007 z"
   id="path12"
   inkscape:connector-curvature="0"
   style="fill:#000000;stroke-width:0.83881152"
   sodipodi:nodetypes="cccccccccccccccsscccccccccccccccccscccccccccccccc" />
	<path
   class="st2"
   d="m 184.86295,3140.1528 c 0,-6.31 -0.002,-12.3693 0.006,-18.4266 0,-0.2449 0.0722,-0.4899 0.12912,-0.8602 1.23996,-0.1936 2.46092,-0.1481 3.65912,-0.084 2.44193,0.1349 4.88197,0.3342 7.31822,0.562 7.59926,0.7121 15.01243,2.3338 22.24901,4.7377 14.70671,4.8859 27.74053,12.6104 39.09764,23.1605 9.40128,8.7329 16.99865,18.8273 22.7693,30.2851 4.31232,8.5619 7.40368,17.5455 9.24557,26.9638 1.22858,6.2776 1.97482,12.5971 1.96912,18.9981 0,0.4501 -0.0266,0.902 -0.0513,1.3521 -0.002,0.053 -0.0646,0.1025 -0.12152,0.186 -0.019,0.018 -0.0607,0.072 -0.11585,0.1026 -0.0512,0.031 -0.11772,0.051 -0.17659,0.051 -6.06117,0.012 -12.12235,0.024 -18.18164,0.027 -0.18419,0 -0.37026,-0.076 -0.67409,-0.1444 -0.41015,-23.8023 -8.74807,-44.4239 -25.60621,-61.2878 -16.85622,-16.8599 -37.46462,-25.2207 -61.51564,-25.6233 z"
   id="path14"
   inkscape:connector-curvature="0"
   style="fill:#000000;stroke-width:0.18988656" />
	<path
   class="st3"
   d="m 1284.6069,3530.3968 c 7.1012,-0.9517 43.1195,-1.3828 61.503,-0.7402 1.3258,0.049 2.6355,0.3823 4.1809,0.6183 0.301,1.8871 0.6019,3.4732 0.7972,5.0757 1.7082,13.8608 8.1587,25.0128 19.1235,33.6189 6.1576,4.8317 12.9741,8.4514 20.4413,10.6558 21.141,6.2552 42.4364,6.4829 63.7481,0.8703 7.2884,-1.9197 13.8445,-5.3848 19.7256,-10.1597 13.755,-11.1845 16.976,-31.2435 12.2012,-45.275 -2.0252,-5.9544 -6.003,-10.4769 -10.9648,-14.2187 -6.0275,-4.539 -12.7869,-7.7601 -19.9614,-9.81 -10.8593,-3.1073 -21.8811,-5.6695 -32.8462,-8.427 -17.3828,-4.3681 -34.8307,-8.4841 -52.1404,-13.1287 -11.4774,-3.0747 -22.3854,-7.817 -32.8948,-13.3808 -8.5817,-4.547 -16.4394,-10.1189 -23.4592,-16.8703 -10.6884,-10.2736 -17.5617,-22.6866 -20.4413,-37.1492 -3.9614,-19.8719 -3.0911,-39.6056 3.2699,-58.9 6.5645,-19.9044 19.0261,-35.3026 36.775,-46.4302 13.031,-8.175 27.2496,-13.4052 42.2816,-16.1303 26.656,-4.8398 53.3363,-4.5144 79.8132,1.4398 17.3992,3.9127 33.6676,10.6477 47.9676,21.5314 22.4017,17.0575 35.2864,39.817 39.8172,67.441 0.7565,4.5877 1.09,9.2485 1.6837,14.4057 -7.6706,1.1876 -14.8125,0.4717 -21.9055,0.5937 -7.1825,0.1302 -14.3649,0.024 -21.5476,0.024 -7.1499,0 -14.2918,0 -21.9055,0 -0.4312,-1.9929 -0.7728,-3.5221 -1.09,-5.0595 -0.2195,-1.0818 -0.3822,-2.1718 -0.6019,-3.2538 -4.5389,-21.8159 -17.8709,-34.8958 -39.5323,-39.4997 -17.2609,-3.6685 -34.5706,-3.4327 -51.7989,0.2277 -6.784,1.4397 -13.0636,4.2135 -18.847,8.2075 -17.2771,11.9329 -18.9447,42.2898 0.5042,54.6782 5.084,3.2375 10.599,5.9137 16.1629,8.2563 10.973,4.6203 22.6619,6.9303 34.1474,9.8832 20.5633,5.2872 41.3056,9.9075 61.5111,16.5206 12.6162,4.124 24.7688,9.2568 36.3764,15.7642 23.3534,13.1042 35.3433,33.5048 38.0926,59.5669 1.57,14.8857 1.0168,29.7958 -2.8958,44.413 -5.2628,19.6197 -15.9024,35.6523 -32.057,47.9756 -14.3081,10.9162 -30.5929,17.5049 -48.0245,21.3688 -23.931,5.3035 -48.0978,6.2714 -72.4761,3.8556 -16.0082,-1.5862 -31.6667,-4.5714 -46.723,-10.3223 -19.5141,-7.4511 -36.1487,-18.8877 -48.7323,-35.7745 -11.3472,-15.2272 -17.6188,-32.4067 -19.1317,-51.2863 -0.3172,-3.693 -1.6269,-7.5241 -0.1464,-11.1764 z"
   id="path16"
   inkscape:connector-curvature="0"
   style="fill:#000000;stroke-width:0.81342387" />
	<path
   class="st4"
   d="m 723.75715,3288.0592 c 24.47651,0 47.76191,0 71.24026,0 1.66084,3.0953 0.88915,6.2827 0.88915,9.294 0.0671,40.1876 0.042,80.3665 0.042,120.5541 0,31.3463 0.0334,62.7011 -0.009,94.0475 -0.009,8.8829 0.75494,17.6821 3.34685,26.1793 1.5686,5.1419 3.49785,10.2755 6.04785,14.9896 8.11128,14.9811 20.90317,23.9648 37.58711,26.7832 13.89914,2.3486 27.86533,1.6524 41.50441,-2.1725 23.49512,-6.6014 36.01855,-22.8073 39.54156,-46.3696 1.04853,-7.0124 1.35888,-14.1927 1.36729,-21.2973 0.0923,-70.6784 0.0587,-141.3566 0.0587,-212.0348 0,-3.0868 0,-6.1736 0,-9.1178 6.81955,-1.4512 53.02968,-1.8873 71.76033,-0.7634 0.26003,1.4427 0.6459,3.0114 0.80526,4.5966 0.14258,1.4094 0.0335,2.8437 0.0335,4.2696 0,71.8191 -0.009,143.6381 0.009,215.4571 0,12.557 -0.69626,25.0134 -3.27141,37.3775 -8.25388,39.6841 -31.93353,65.8299 -69.5207,79.8716 -14.77144,5.5194 -30.16365,8.321 -45.83265,9.5876 -25.16434,2.0383 -50.09382,0.9563 -74.55356,-5.922 -9.89799,-2.7849 -19.34299,-6.6601 -28.36022,-11.6343 -26.27158,-14.5114 -42.29286,-36.6309 -48.90271,-65.7293 -2.28156,-10.0238 -3.65719,-20.1734 -3.69914,-30.4824 -0.0169,-3.7075 -0.0755,-7.4067 -0.0755,-11.1142 -0.009,-72.1043 0,-144.2086 0,-216.3127 -0.009,-3.0868 -0.009,-6.182 -0.009,-10.0574 z"
   id="path18"
   inkscape:connector-curvature="0"
   style="fill:#000000;stroke-width:0.83881152" />
	<path
   class="st5"
   d="m 1089.8145,3380.9481 c 0.1426,8.6565 0.2851,17.4053 0.4194,26.0199 0,0 -0.081,7.1131 0.7664,6.115 2.9442,-3.4727 8.4437,-6.6374 11.6228,-9.8752 11.6007,-11.8273 25.9529,-18.5545 42.1587,-20.7354 20.9871,-2.8184 41.4876,-0.6122 60.8809,8.6147 17.4641,8.3125 31.1199,20.8779 41.387,37.1761 11.2652,17.8667 17.7827,37.4697 20.7353,58.2974 2.8604,20.1482 2.8521,32.3468 -0.068,52.4782 -3.2293,22.2705 -10.1495,43.2073 -23.5873,61.5856 -17.8248,24.359 -42.0747,36.7567 -72.0287,38.3337 -9.4282,0.4949 -18.7893,-0.1006 -28.008,-2.3152 -18.3447,-4.4037 -33.4265,-14.0919 -45.7655,-28.2175 -1.8202,-2.0803 -3.6237,-4.1773 -5.3347,-6.1402 -0.6628,0.2517 -1.0067,0.2853 -1.1744,0.4698 -0.1679,0.1845 -0.2013,0.52 -0.2097,0.7968 -0.059,1.7028 -0.1342,3.4141 -0.1342,5.1168 -0.025,46.7302 -0.033,93.4688 -0.05,140.1989 0,0.2852 -0.059,0.5705 -0.1091,0.8472 -0.05,0.2684 -0.1341,0.5369 -0.3104,1.2583 -0.78,0.2516 -1.7949,0.8724 -2.8099,0.8807 -19.947,0.05 -39.8855,0.034 -59.8325,0.01 -0.5536,0 -1.0988,-0.2684 -2.1305,-0.5368 -0.2014,-1.7364 -0.604,-3.6489 -0.6208,-5.5614 -0.067,-8.8326 -0.034,-17.6653 -0.034,-26.498 0,-109.423 -0.01,-218.846 0.025,-328.2689 0,-3.3552 -0.4362,-6.7692 0.5285,-10.0825 1.0317,-0.3607 1.8118,-0.8639 2.5919,-0.8639 19.3765,-0.033 38.7447,-0.025 58.1214,0.025 0.7967,-0.017 1.5936,0.4447 2.9693,0.8725 z m -0.9479,129.5376 c 0.6459,5.1755 1.4428,13.9746 2.9191,22.6563 1.6357,9.5877 4.8315,18.7139 10.0909,27.0181 6.5511,10.3342 15.7278,17.1621 27.5634,20.1483 10.9716,2.768 21.9936,2.4662 32.94,-0.4782 12.7751,-3.4391 22.4383,-10.9716 28.7042,-22.5388 2.6842,-4.9658 4.9825,-10.2922 6.484,-15.7194 5.2091,-18.9235 6.0394,-30.2245 2.9946,-49.5676 -2.3907,-15.1824 -8.3295,-28.8718 -18.823,-40.439 -18.8901,-20.8194 -52.1489,-20.7774 -71.2402,-1.8958 -8.061,7.9687 -13.7985,17.3048 -17.2628,28.075 -3.9004,12.0957 -4.8147,16.5269 -4.3702,32.7411 z"
   id="path20"
   inkscape:connector-curvature="0"
   style="fill:#000000;stroke-width:0.83881152"
   sodipodi:nodetypes="ccccccccccccccccccccccccscccccccccccccccccc" />
	<path
   class="st3"
   d="m 2190.2942,3639.6563 h -61.2573 c -2.9525,-6.4756 -4.0536,-20.9304 -5.0432,-27.3221 -2.2649,-0.8136 -3.0537,0.6627 -4.018,1.5601 -14.4863,13.4295 -31.8414,20.6181 -51.1508,23.5539 -18.2271,2.7765 -36.354,2.2145 -54.3131,-1.9376 -11.5251,-2.6675 -22.1109,-7.4403 -30.8599,-15.6607 -11.2485,-10.569 -17.7911,-23.6712 -19.5693,-38.8621 -1.5269,-13.0686 -0.9728,-26.1793 2.2061,-39.0466 4.7059,-19.0411 15.8283,-33.175 32.9234,-42.6369 11.3155,-6.2575 23.5285,-10.0991 36.1947,-12.364 17.0863,-3.0533 34.257,-5.6284 51.3351,-8.732 6.6855,-1.2163 13.3372,-2.9442 19.7962,-5.0665 15.6016,-5.125 16.5496,-18.6551 14.2764,-28.8718 -1.0235,-4.5967 -4.1187,-8.0443 -7.843,-10.8711 -3.9089,-2.9694 -8.3294,-4.9573 -13.0183,-6.2239 -11.4665,-3.1037 -23.1427,-3.1456 -34.7602,-1.3841 -13.5217,2.0552 -22.6985,9.9819 -27.7648,22.5893 -1.6858,4.194 -2.8267,8.6145 -4.2027,12.8841 -6.5594,1.1156 -52.5765,1.2246 -60.78,0.1006 -1.2832,-4.3618 -0.5031,-8.9081 0.2264,-13.2617 1.0821,-6.4336 2.55,-12.8505 4.446,-19.0911 5.3681,-17.7326 16.5328,-24.9355 32.4786,-34.1707 11.9782,-6.937 24.9966,-11.0054 38.5937,-13.0353 21.8176,-3.2545 43.6936,-3.372 65.5532,-0.2264 10.1914,1.4678 20.0056,4.2276 29.4673,8.3294 20.6012,8.9249 34.123,18.208 40.8501,39.5055 3.0951,9.7973 4.9826,19.8798 5.4525,30.172 0.2348,5.1252 0.3942,10.2504 0.4024,15.3754 0.033,49.5739 0.016,99.1476 0.026,148.7213 z m -67.7016,-129.8165 c -10.4766,7.3564 -21.6664,9.2941 -32.7051,11.7435 -9.143,2.0299 -18.3618,3.8249 -27.3284,6.4503 -6.2156,1.8202 -12.2971,4.429 -18.0093,7.4907 -7.9855,4.2779 -12.5739,11.4749 -13.8571,20.3915 -0.6374,4.454 -0.6542,9.1262 -0.1007,13.5887 1.1911,9.5624 6.5678,16.1555 15.6941,19.4353 2.3906,0.8639 4.9155,1.5602 7.4318,1.8369 18.0011,2.0132 34.5593,-1.7278 48.7601,-13.3371 11.1984,-9.1598 18.6468,-20.9031 19.947,-35.4733 0.8975,-10.1244 0.1676,-20.4083 0.1676,-32.1265 z"
   id="path22"
   inkscape:connector-curvature="0"
   style="fill:#000000;stroke-width:0.83881152"
   sodipodi:nodetypes="cccccccccccccccccccccccccccccccccccccccccc" />
	<path
   class="st2"
   d="m 2383.9245,3312.6772 c 9.4196,-1.1911 58.0038,-1.0653 65.2929,0.1427 0.4112,5.4689 0.1429,11.1226 0.193,16.751 0.05,5.4103 0.01,10.829 0.01,16.2393 0,5.6956 -0.042,11.3994 0.016,17.095 0.051,5.36 -0.2598,10.7368 0.2181,16.0716 3.4812,1.4848 6.635,0.9395 9.6884,0.9479 39.8855,0.042 79.7793,0.017 119.6648,0.042 3.0782,0 6.1569,0.1761 9.076,0.26 1.2835,6.8698 1.5601,35.1163 0.5618,47.9669 -2.7009,1.6105 -5.8885,0.864 -8.8826,0.864 -39.8857,0.059 -79.7797,0.042 -119.6652,0.042 h -9.7888 c -0.3272,1.8622 -0.8556,3.4475 -0.8556,5.0329 -0.042,33.9047 -0.034,65.8179 0,99.7227 0.01,7.4486 1.0233,14.805 3.3301,21.8761 1.2245,3.7496 2.8436,7.474 4.9155,10.8291 1.7532,2.852 4.0348,5.662 6.7271,7.5996 11.2739,8.1366 23.9061,8.3798 36.7567,5.0414 11.4917,-2.9863 18.3029,-11.1227 21.8261,-22.0524 1.5601,-4.84 2.5581,-9.9147 3.2208,-14.9644 0.5957,-4.496 0.4952,-9.1011 0.5118,-13.6558 0.051,-17.6654 0.01,-35.3308 0.033,-52.9961 0.01,-2.7933 0.1929,-5.5865 0.3019,-8.7992 10.5858,-1.0989 20.7773,-0.3523 30.9355,-0.4949 9.9567,-0.1342 19.9133,-0.033 30.2222,-0.033 0.3271,1.9879 0.8221,3.5985 0.8221,5.209 0.042,22.7988 0.1761,45.5893 -0.05,68.3882 -0.1341,13.4547 -2.2397,26.7079 -6.9622,39.3571 -10.846,29.048 -31.6231,47.6613 -61.3087,55.739 -22.95,6.2491 -46.3946,6.2239 -69.2858,-0.193 -36.6561,-10.267 -58.7169,-34.4919 -65.3266,-72.1713 -1.3674,-7.8177 -2.0971,-15.8451 -2.1138,-23.7802 -0.1594,-73.5135 -0.101,-147.0268 -0.1091,-220.5403 0.025,-1.6693 0.025,-3.3553 0.025,-5.5363 z"
   id="path24"
   inkscape:connector-curvature="0"
   style="fill:#000000;stroke-width:0.83881152"
   sodipodi:nodetypes="cccscccccccscccccccccccccccccccccccc" />
	<path
   class="st2"
   d="m 2943.4703,3639.4591 c -8.4047,1.1324 -58.8173,1.1072 -66.8531,0.01 -0.075,-2.9359 -0.2266,-5.9892 -0.235,-9.0424 -0.016,-47.0154 0.093,-94.0307 -0.1171,-141.0377 -0.033,-8.212 -0.9733,-16.4827 -2.2063,-24.6191 -2.3067,-15.1993 -11.8692,-23.5958 -26.6743,-25.8691 -10.7366,-1.6523 -21.5656,-1.7195 -32.2354,1.0739 -13.9496,3.6487 -23.5708,12.213 -28.8467,25.5752 -3.7075,9.3947 -4.9741,19.2675 -5.0077,29.308 -0.059,15.669 -0.033,31.3465 -0.033,47.0154 v 88.8973 8.8494 c -7.6666,1.3673 -15.0146,0.5117 -22.3039,0.6627 -7.1215,0.151 -14.2431,0.05 -21.3645,0.025 -7.3563,-0.017 -14.7129,-0.075 -21.5657,-0.109 -0.6711,-0.7633 -0.8893,-0.9563 -1.0402,-1.1995 -0.1343,-0.2265 -0.2685,-0.5033 -0.2685,-0.7633 -0.05,-81.4906 -0.1007,-168.9811 -0.1257,-250.4633 0,-1.4091 0.2011,-2.8268 0.3521,-4.2275 0.025,-0.2349 0.2853,-0.4362 0.4363,-0.6543 6.5761,-1.2414 55.068,-1.2918 62.2143,-0.033 1.1747,5.2845 0.3778,16.7033 0.5203,22.0717 0.1425,5.4019 0.034,10.8039 0.034,16.1302 2.0382,1.0738 2.5246,-0.4948 3.3465,-1.5769 3.2801,-4.2947 6.3249,-8.8075 9.9566,-12.7834 10.6865,-11.7182 24.032,-19.1753 39.4748,-22.3963 18.5964,-3.8753 37.3184,-4.5044 55.8564,0.5368 31.0275,8.4385 48.2569,29.652 54.7912,60.2854 1.3504,6.3498 1.7951,13.0016 1.8117,19.5192 0.1426,56.7036 0.092,113.3989 0.092,170.1025 -0.01,1.4009 -0.01,2.81 -0.01,4.7141 z"
   id="path26"
   inkscape:connector-curvature="0"
   style="fill:#000000;stroke-width:0.83881152"
   sodipodi:nodetypes="cccccccccscccccccccccccccccccccc" />
	<path
   class="st6"
   d="m 184.99396,3178.996 c 25.68786,-0.7842 48.75148,21.7649 48.15143,48.0622 -0.33989,0.053 -0.69877,0.1595 -1.05955,0.1614 -5.67572,0.012 -11.35143,0.01 -17.02713,0 -0.36649,0 -0.73297,-0.076 -1.1735,-0.1235 -0.1766,-7.996 -3.00401,-14.8206 -8.59047,-20.3766 -5.53709,-5.5086 -12.31035,-8.3095 -20.21723,-8.4501 -0.0855,-0.3815 -0.20887,-0.6797 -0.20887,-0.976 -0.01,-5.8693 -0.006,-11.7407 0.002,-17.6101 0,-0.1879 0.0646,-0.3721 0.12342,-0.6892 z"
   id="path28"
   inkscape:connector-curvature="0"
   style="fill:#000000;stroke-width:0.18988656" />
	<path
   class="st5"
   d="m 2364.9172,3444.4869 c -9.4703,0 -18.2863,-0.092 -27.1021,0.033 -6.3163,0.092 -12.4228,1.5687 -18.3617,3.6322 -14.3518,4.9908 -24.1073,18.6455 -29.2578,32.9892 -3.5315,9.8141 -4.2863,20.0141 -4.3113,30.2979 -0.068,29.0648 -0.025,58.1297 -0.034,87.2029 0,11.3994 0.016,22.7989 -0.016,34.1983 -0.01,2.2396 -0.2181,4.4876 -0.3358,6.6517 -6.5341,1.015 -53.5745,1.2751 -65.5697,0.3775 -0.2599,-1.4428 -0.671,-3.003 -0.805,-4.5883 -0.1429,-1.6944 -0.033,-3.414 -0.033,-5.125 v -231.6798 -17.4702 c 1.552,-0.4362 2.6005,-0.9814 3.6574,-0.9814 18.521,-0.059 37.042,-0.05 55.5627,-0.025 0.8136,0 1.6358,0.344 2.9947,0.6459 1.2079,8.6398 -0.05,25.4305 0.6961,34.1374 1.8456,1.0317 2.4744,-2.5788 3.213,-3.6106 5.3595,-7.4822 11.7012,-13.9494 19.3847,-19.0744 10.9046,-7.281 22.8914,-11.3408 35.9768,-12.1209 7.9267,-0.4698 15.8616,-0.7718 22.9833,-0.5201 1.0484,0.713 1.3506,0.8304 1.5013,1.0486 0.1511,0.218 0.2098,0.5368 0.2098,0.8052 0.068,20.7941 0.1259,39.5966 0.1594,60.3908 0.01,0.8052 -0.2851,1.6188 -0.5116,2.7848 z"
   id="path30"
   inkscape:connector-curvature="0"
   style="fill:#000000;stroke-width:0.83881152"
   sodipodi:nodetypes="ccccccccccsccccccccccccccc" />
	<path
   class="st3"
   d="m 2618.5987,3388.4531 c 13.1863,-1.124 59.1362,-0.7548 65.57,0.5453 0.1593,0.9478 0.4867,2.0216 0.4867,3.0952 0.025,82.3042 0.025,164.5999 0.025,247.2649 -1.3672,0.369 -2.3821,0.8807 -3.3973,0.8807 -20.2237,0.042 -40.4471,0.025 -60.6793,0 -0.5453,0 -1.0989,-0.2684 -1.644,-0.411 -0.1594,-0.2098 -0.3441,-0.411 -0.4866,-0.6375 -0.1509,-0.2433 -0.3607,-0.5117 -0.3607,-0.7634 -0.059,-82.3293 -0.1008,-164.6671 -0.1174,-246.9963 0,-0.8053 0.3186,-1.619 0.6038,-2.9779 z"
   id="path32"
   inkscape:connector-curvature="0"
   style="fill:#000000;stroke-width:0.83881152" />
	<path
   class="st7"
   d="m 2618.7244,3287.5967 c 22.0275,0 43.568,0 64.6139,0 0.7212,1.4764 1.1743,1.9712 1.1743,2.4578 0.076,18.7893 0.1175,37.5786 0.1259,56.3681 0,0.8053 -0.3861,1.6105 -0.579,2.3319 -6.3413,1.3756 -48.2313,1.8035 -65.2175,0.6627 -0.2684,-1.1408 -0.8471,-2.4242 -0.8471,-3.716 -0.05,-18.2273 -0.042,-36.4464 -0.01,-54.6736 0,-0.797 0.3355,-1.6023 0.7379,-3.4309 z"
   id="path34"
   inkscape:connector-curvature="0"
   style="fill:#000000;stroke-width:0.83881152" />
	<path
   class="st8"
   d="m 165.47932,3256.54 c -5.45164,-0.025 -9.78485,-4.432 -9.79055,-9.8931 -0.006,-5.2029 4.33131,-9.8494 9.90448,-9.8114 5.46874,0.037 9.82853,4.4491 9.80575,9.9121 -0.0247,5.5541 -4.6902,9.8835 -9.91968,9.7924 z"
   id="path36"
   inkscape:connector-curvature="0"
   style="fill:#fc4744;stroke-width:0.18988656" />
	<path
   class="st9"
   d="M 2122.5926,3503.8398"
   id="path38"
   inkscape:connector-curvature="0"
   style="fill:#fc4744;stroke-width:0.83881152" />
	<path
   class="st10"
   d="m 413.68575,3571.6036 c -0.21078,-2.1514 -0.188,-17.4923 0.01,-19.0646 0.0455,-0.045 0.0855,-0.1007 0.13861,-0.133 0.0513,-0.031 0.11773,-0.053 0.17849,-0.053 5.80103,-0.016 11.60207,-0.031 17.4031,-0.041 0.38357,0 0.76904,0.032 1.15261,0.063 0.0513,0 0.0968,0.08 0.14622,0.1236 0.23735,1.5266 0.32091,15.2023 0.10824,19 -0.3361,0.053 -0.69689,0.1614 -1.05578,0.1614 -5.67381,0.012 -11.34572,0.01 -17.01953,0.01 -0.31901,0 -0.63422,-0.033 -1.06146,-0.061 z"
   id="path40"
   inkscape:connector-curvature="0"
   style="fill:#000000;stroke-width:0.18988656" />
	<path
   class="st10"
   d="m 491.12338,3571.4611 c -0.20318,-1.5495 -0.24496,-16.7689 -0.0455,-18.9752 0.20509,-0.053 0.44054,-0.1653 0.67601,-0.1653 5.93015,-0.01 11.8622,-0.01 17.79236,0 0.1823,0 0.36459,0.068 0.48231,0.091 0.10634,0.093 0.16711,0.1273 0.19939,0.1804 0.0304,0.051 0.0418,0.1216 0.0418,0.1842 0.008,6.1238 0.0152,12.2476 0.0152,18.3714 0,0.1121 -0.0912,0.2223 -0.13862,0.3343 -1.72797,0.2735 -17.47145,0.2602 -19.02283,-0.018 z"
   id="path42"
   inkscape:connector-curvature="0"
   style="fill:#000000;stroke-width:0.18988656" />
	<path
   class="st10"
   d="m 549.06157,3571.6416 c 0,-6.5188 0,-12.7643 0,-19.1197 0.35888,-0.071 0.71587,-0.2013 1.07286,-0.2032 5.73837,-0.014 11.47485,-0.01 17.21321,-0.01 0.25066,0 0.50131,0.035 0.86779,0.063 0.0551,0.3133 0.15191,0.6096 0.15191,0.9058 0.008,5.8675 0.006,11.7331 0.002,17.6006 0,0.1841 -0.0531,0.3683 -0.10064,0.6665 -2.10014,0.2525 -4.21167,0.082 -6.31372,0.112 -2.12673,0.033 -4.25537,0.012 -6.38209,0.01 -2.11534,-0.01 -4.23068,0.027 -6.51122,-0.026 z"
   id="path44"
   inkscape:connector-curvature="0"
   style="fill:#000000;stroke-width:0.18988656" />
	<path
   class="st10"
   d="m 626.37008,3571.5998 c -6.46563,0 -12.76226,0 -18.99624,0 -0.10444,-0.1159 -0.15382,-0.1595 -0.188,-0.2127 -0.0323,-0.051 -0.0683,-0.112 -0.0683,-0.1689 -0.004,-6.1239 -0.004,-12.2478 0.004,-18.3717 0,-0.112 0.093,-0.224 0.14432,-0.336 1.483,-0.2564 15.52702,-0.3437 19.00004,-0.1083 0.0551,0.3286 0.16521,0.6855 0.1671,1.0444 0.0113,5.7385 0.008,11.4767 0.006,17.2132 -0.004,0.2526 -0.0361,0.5033 -0.0684,0.94 z"
   id="path46"
   inkscape:connector-curvature="0"
   style="fill:#000000;stroke-width:0.18988656" />
	<path
   class="st10"
   d="m 626.37199,3504.0419 c 0,6.4201 0,12.7167 0,18.9298 -0.11774,0.1254 -0.15381,0.1823 -0.20698,0.2165 -0.0494,0.033 -0.11583,0.053 -0.1747,0.055 -5.73647,0.014 -11.47295,0.027 -17.21132,0.035 -0.38547,0 -0.77283,-0.01 -1.1583,-0.034 -0.11583,-0.01 -0.22787,-0.088 -0.3399,-0.1348 -0.0437,-0.047 -0.0968,-0.091 -0.12723,-0.1462 -0.0285,-0.053 -0.0437,-0.1197 -0.0437,-0.1804 -0.0113,-5.7385 -0.019,-11.4749 -0.0285,-17.2132 0,-0.4481 0,-0.8963 0,-1.4319 0.35129,-0.08 0.64752,-0.2049 0.94185,-0.2049 5.86559,-0.012 11.73308,-0.01 17.59868,0 0.18799,0 0.37218,0.051 0.75006,0.112 z"
   id="path48"
   inkscape:connector-curvature="0"
   style="fill:#000000;stroke-width:0.18988656" />
	<path
   class="st10"
   d="m 568.30278,3523.1084 c -1.65391,0.2032 -16.87713,0.2489 -19.11209,0.063 -0.0512,-0.2088 -0.1595,-0.4444 -0.1595,-0.6797 -0.01,-5.8676 -0.01,-11.7332 -0.006,-17.6007 0,-0.2467 0.0513,-0.4936 0.0702,-0.6627 0.11773,-0.1177 0.1576,-0.1728 0.21076,-0.205 0.0513,-0.033 0.11584,-0.057 0.1766,-0.057 5.67192,-0.018 11.34382,-0.032 17.01574,-0.041 0.5146,0 1.02729,0.031 1.54187,0.057 0.0514,0 0.0968,0.08 0.14622,0.1234 0.25065,1.5533 0.3361,14.8112 0.11584,19.0038 z"
   id="path50"
   inkscape:connector-curvature="0"
   style="fill:#000000;stroke-width:0.18988656" />
	<path
   class="st10"
   d="m 491.13098,3503.9279 c 6.24536,0 12.36541,0 18.48546,0.01 0.17659,0 0.35319,0.093 0.51459,0.1367 0.22595,1.5456 0.29812,15.8042 0.0968,19.0267 -0.20508,0.053 -0.44054,0.1689 -0.67409,0.1689 -5.93016,0.01 -11.86222,0.01 -17.79238,0 -0.18609,0 -0.37218,-0.057 -0.53548,-0.084 -0.0646,-0.07 -0.11203,-0.1158 -0.14812,-0.1671 -0.0341,-0.049 -0.0816,-0.1083 -0.0816,-0.1632 -0.0133,-6.0593 -0.0228,-12.1206 -0.0247,-18.1799 -0.002,-0.1803 0.0741,-0.3607 0.15951,-0.7482 z"
   id="path52"
   inkscape:connector-curvature="0"
   style="fill:#000000;stroke-width:0.18988656" />
	<path
   class="st10"
   d="m 432.75035,3523.2092 c -6.38967,0 -12.68631,0 -18.92029,0 -0.10634,-0.1179 -0.15571,-0.1614 -0.18989,-0.2147 -0.0323,-0.051 -0.0646,-0.1139 -0.0665,-0.1709 -0.0133,-5.7384 -0.0247,-11.4748 -0.0304,-17.2132 0,-0.4501 0.0341,-0.9 0.0646,-1.3501 0.004,-0.049 0.0779,-0.095 0.11963,-0.1443 1.47541,-0.2487 15.73209,-0.3304 18.97536,-0.1006 0.0569,0.1975 0.17849,0.4291 0.18039,0.6607 0.008,5.9967 0.004,11.9913 -0.002,17.988 -0.002,0.1215 -0.0569,0.2412 -0.13102,0.5451 z"
   id="path54"
   inkscape:connector-curvature="0"
   style="fill:#000000;stroke-width:0.18988656" />
	<path
   class="st10"
   d="m 345.97219,3503.9603 c 6.38019,0 12.62557,0 18.98106,0 0.0684,0.3 0.19369,0.5925 0.19369,0.8849 0.01,5.932 0.004,11.8622 -0.002,17.7943 0,0.1233 -0.0456,0.2468 -0.0892,0.4671 -0.19367,0.049 -0.42724,0.1614 -0.6627,0.1614 -5.93016,0.01 -11.86221,0.01 -17.79237,0 -0.18608,0 -0.37218,-0.059 -0.53168,-0.086 -0.0646,-0.072 -0.11393,-0.1159 -0.15001,-0.169 -0.0341,-0.049 -0.0798,-0.1083 -0.0798,-0.1633 -0.0133,-6.0593 -0.0228,-12.1205 -0.0247,-18.1798 -0.002,-0.1842 0.0759,-0.3646 0.15761,-0.7139 z"
   id="path56"
   inkscape:connector-curvature="0"
   style="fill:#000000;stroke-width:0.18988656" />
	<path
   class="st10"
   d="m 345.81649,3552.3528 c 6.55109,0 12.79645,0 19.15955,0 0.0627,0.3817 0.1728,0.7387 0.1728,1.0975 0.0113,5.7385 0.008,11.4769 0.004,17.2133 0,0.2507 -0.0341,0.5013 -0.0474,0.6817 -0.10064,0.1082 -0.13862,0.1614 -0.18988,0.1994 -0.0474,0.035 -0.10824,0.078 -0.16331,0.078 -5.99472,0.018 -11.98944,0.031 -17.98415,0.037 -0.24875,0 -0.4975,-0.051 -0.84879,-0.089 -0.24496,-2.1344 -0.0835,-4.2478 -0.11204,-6.3518 -0.0304,-2.1267 -0.01,-4.2553 -0.006,-6.3821 0.004,-2.1096 -0.0113,-4.2212 0.0152,-6.4847 z"
   id="path58"
   inkscape:connector-curvature="0"
   style="fill:#000000;stroke-width:0.18988656" />
	<path
   class="st10"
   d="m 123.47831,3378.1491 c 6.30993,0 12.5553,0 18.91271,0 0.0665,0.3114 0.18229,0.6038 0.18229,0.8981 0.008,5.9302 0.002,11.8622 -0.006,17.7924 0,0.1216 -0.0513,0.243 -0.10064,0.4632 -0.19368,0.045 -0.42724,0.1501 -0.6627,0.1501 -5.93016,0.01 -11.86032,0.01 -17.79237,0 -0.18419,0 -0.36838,-0.065 -0.52409,-0.093 -0.0684,-0.076 -0.11773,-0.1197 -0.15381,-0.1729 -0.0323,-0.051 -0.0721,-0.112 -0.0721,-0.167 -0.004,-6.1239 -0.006,-12.2477 0.002,-18.3697 0.002,-0.112 0.0949,-0.226 0.21457,-0.5032 z"
   id="path60"
   inkscape:connector-curvature="0"
   style="fill:#000000;stroke-width:0.18988656" />
	<path
   class="st10"
   d="m 123.27324,3358.4635 c 0,-6.2757 0,-12.5211 0,-18.8652 0.31521,-0.069 0.61143,-0.1898 0.90765,-0.1898 5.8656,-0.012 11.7312,-0.01 17.59869,0 0.18419,0 0.36838,0.057 0.6779,0.1082 0.26774,2.0944 0.0892,4.2022 0.12152,6.3023 0.0323,2.1267 0.008,4.2554 0.008,6.3821 0,2.1154 0,4.2288 0,6.1751 -0.18988,0.2051 -0.22596,0.264 -0.27913,0.2963 -0.0513,0.032 -0.11773,0.051 -0.1766,0.051 -5.80103,0.014 -11.60206,0.025 -17.4031,0.033 -0.38547,0 -0.77094,-0.035 -1.15451,-0.067 -0.0551,-0.01 -0.10254,-0.072 -0.30002,-0.2222 z"
   id="path62"
   inkscape:connector-curvature="0"
   style="fill:#000000;stroke-width:0.18988656" />
	<path
   class="st10"
   d="m 181.33295,3474.8678 c 0,-6.5265 0,-12.7718 0,-19.1254 0.36079,-0.07 0.71777,-0.2012 1.07666,-0.2012 5.73648,-0.014 11.47485,-0.01 17.21131,-0.01 0.25065,0 0.5013,0.035 0.86399,0.063 0.0551,0.3152 0.15191,0.6113 0.15381,0.9076 0.008,5.8675 0.006,11.7331 0,17.5986 0,0.1843 -0.0551,0.3685 -0.10065,0.6647 -2.10014,0.2487 -4.21167,0.08 -6.31372,0.112 -2.12672,0.031 -4.25345,0.01 -6.38209,0.01 -2.11533,0 -4.22877,0.021 -6.50931,-0.02 z"
   id="path64"
   inkscape:connector-curvature="0"
   style="fill:#000000;stroke-width:0.18988656" />
	<path
   class="st10"
   d="m 123.40046,3455.5715 c 6.38019,0 12.62366,0 18.97916,0 0.0684,0.302 0.19369,0.5943 0.19369,0.8868 0.009,5.9302 0.004,11.8622 -0.002,17.7923 0,0.1235 -0.0456,0.245 -0.0911,0.4671 -0.19368,0.049 -0.42724,0.1595 -0.6627,0.1614 -5.93016,0.01 -11.86031,0.01 -17.79237,0 -0.18609,0 -0.37218,-0.059 -0.53168,-0.088 -0.0646,-0.072 -0.11393,-0.1159 -0.15001,-0.169 -0.0342,-0.049 -0.0779,-0.1083 -0.0798,-0.1634 -0.0114,-6.0593 -0.0228,-12.1185 -0.0247,-18.1777 0.002,-0.1861 0.0816,-0.3666 0.1614,-0.714 z"
   id="path66"
   inkscape:connector-curvature="0"
   style="fill:#000000;stroke-width:0.18988656" />
	<path
   class="st10"
   d="m 200.57986,3436.1101 c -6.46375,0 -12.76038,0 -18.99626,0 -0.10443,-0.1159 -0.15381,-0.1577 -0.18798,-0.2128 -0.0324,-0.051 -0.0684,-0.112 -0.0684,-0.169 -0.004,-6.1239 -0.004,-12.2457 0.002,-18.3696 0,-0.112 0.093,-0.2241 0.14431,-0.3361 1.49631,-0.2601 15.46627,-0.3474 18.99816,-0.1101 0.0551,0.3285 0.1671,0.6855 0.1671,1.0444 0.0113,5.7383 0.008,11.4748 0.006,17.2131 -0.002,0.2508 -0.0341,0.5014 -0.0646,0.9401 z"
   id="path68"
   inkscape:connector-curvature="0"
   style="fill:#000000;stroke-width:0.18988656" />
	<path
   class="st10"
   d="m 142.40241,3417.0093 c 0.23356,1.5229 0.31521,15.3163 0.10444,19 -0.3361,0.053 -0.69689,0.1597 -1.05767,0.1597 -5.67191,0.012 -11.34572,0.01 -17.01764,0.01 -0.31711,0 -0.63232,-0.035 -0.90006,-0.053 -0.0893,-0.1005 -0.13672,-0.1443 -0.17469,-0.1955 -0.0361,-0.049 -0.0874,-0.1064 -0.0874,-0.1596 -0.0152,-5.9946 -0.0266,-11.9894 -0.0323,-17.9841 0,-0.2468 0.0532,-0.4918 0.0703,-0.638 0.12912,-0.1348 0.1652,-0.1938 0.21837,-0.226 0.0513,-0.033 0.11773,-0.053 0.17849,-0.053 5.8656,-0.016 11.73119,-0.031 17.59489,-0.039 0.31901,0 0.63992,0.033 0.95893,0.064 0.0494,0 0.0949,0.076 0.14431,0.1196 z"
   id="path70"
   inkscape:connector-curvature="0"
   style="fill:#000000;stroke-width:0.18988656" />
	<path
   class="st10"
   d="m 181.33295,3358.7123 c 0,-6.5037 0,-12.7509 0,-19.1046 0.35889,-0.07 0.71587,-0.2012 1.07476,-0.2032 5.73647,-0.014 11.47484,-0.01 17.21132,-0.01 0.25065,0 0.5013,0.035 0.86398,0.063 0.0551,0.3134 0.15381,0.6096 0.15381,0.9077 0.008,5.8656 0.006,11.7331 0.002,17.5986 0,0.1842 -0.0531,0.3685 -0.10064,0.6666 -2.10014,0.2506 -4.21168,0.082 -6.31372,0.112 -2.12673,0.032 -4.25536,0.014 -6.38209,0.01 -2.11344,-0.01 -4.22877,0.035 -6.50931,-0.039 z"
   id="path72"
   inkscape:connector-curvature="0"
   style="fill:#000000;stroke-width:0.18988656" />
	<path
   class="st10"
   d="m 181.33485,3397.4264 c 0,-6.5037 0,-12.7491 0,-19.0931 0.29053,-0.074 0.58296,-0.2127 0.87538,-0.2127 5.93015,-0.01 11.86031,0 17.79047,0 0.12152,0 0.24305,0.055 0.49371,0.1178 0.0437,0.2429 0.14241,0.5392 0.14241,0.8354 0.008,5.8656 0.006,11.7332 0.002,17.5987 0,0.1842 -0.0531,0.3684 -0.0987,0.6665 -2.10014,0.2563 -4.20978,0.084 -6.31182,0.1159 -2.12674,0.032 -4.25536,0.014 -6.38209,0.01 -2.11344,-0.01 -4.22877,0.033 -6.51121,-0.037 z"
   id="path74"
   inkscape:connector-curvature="0"
   style="fill:#000000;stroke-width:0.18988656" />
</g>
</svg>